<svg width="930" height="796" viewBox="0 0 930 796" fill="none" xmlns="http://www.w3.org/2000/svg">
<g clip-path="url(#clip0_19_918)">
<path d="M354.735 637.807H178.522C178.522 637.807 126.178 634.89 127.355 650.75C128.735 669.408 331.511 657.118 346.333 668.843C361.156 680.568 368.917 694.375 395.354 701.081C421.79 707.787 471.892 690.733 612.32 709.399C697.287 691.935 421.941 637.807 354.735 637.807Z" fill="#5AD2D6"/>
<path d="M144.702 151.355C144.468 119.488 204.867 114.811 204.156 131.575L312.589 131.973C325.133 132.152 335.252 143.515 335.22 157.357L333.793 619.583C333.749 633.115 323.67 644.103 311.269 644.107L196.414 644.665C195.309 646.921 193.234 648.967 189.961 650.662C157.823 650.408 143.215 637.735 143.088 621.421C141.887 618.412 143.406 157.349 144.702 151.355Z" fill="#027273"/>
<path d="M157.092 341.026C157.721 341.045 158.347 340.938 158.934 340.712C159.521 340.486 160.058 340.145 160.512 339.709C160.966 339.274 161.33 338.752 161.581 338.175C161.832 337.597 161.966 336.976 161.974 336.346L163.016 215.664C163.016 214.367 162.511 213.121 161.607 212.192C160.703 211.263 159.472 210.723 158.177 210.689V210.689C157.541 210.67 156.907 210.779 156.314 211.008C155.72 211.238 155.178 211.584 154.72 212.027C154.263 212.469 153.898 212.999 153.647 213.585C153.397 214.17 153.266 214.8 153.263 215.437L152.281 336.127C152.286 337.41 152.792 338.641 153.69 339.556C154.589 340.472 155.81 340.999 157.092 341.026V341.026Z" fill="#013F40"/>
<path d="M191.878 650.75L333.197 650.591C346.039 650.591 356.488 639.347 356.536 625.425L358.237 150.046C358.289 135.81 347.8 124.14 334.803 123.989L193.07 122.146C179.97 121.999 169.322 133.477 169.298 147.781L168.459 625.405C168.451 639.375 178.92 650.73 191.878 650.75Z" fill="#03C0C2"/>
<path d="M189.019 647.375C189.881 647.494 190.75 647.554 191.619 647.554L332.907 647.156C343.944 647.156 353.017 637.282 353.057 625.127L354.735 150.253C354.778 137.823 345.673 127.591 334.505 127.452L192.812 125.382C192.49 125.382 192.16 125.382 191.834 125.382C189.214 125.495 186.643 126.138 184.278 127.273C181.913 128.408 179.802 130.011 178.073 131.985C174.307 136.272 172.252 141.798 172.3 147.507L171.429 625.656C171.409 636.649 178.944 645.986 189.019 647.375Z" fill="#0D0D0D"/>
<path d="M179.604 150.07L178.658 626.42L346.198 626.408L347.801 151.455L179.604 150.07Z" fill="white"/>
<path d="M353.777 195.446H149.41V642.511H353.777V195.446Z" fill="#E6E6E6"/>
<path d="M378.69 586.485L47.219 485.835L60.3477 474.906L371.792 555.974L378.69 586.485Z" fill="#04F2F5"/>
<path d="M44.128 486.425L42.1494 493.26L419.308 602.659L421.287 595.824L44.128 486.425Z" fill="white"/>
<path d="M224.779 372.627C218.847 372.028 212.87 372.028 206.939 372.627C179.433 375.386 155.811 391.222 152.273 412.029C148.38 434.899 169.767 455.646 202.124 459.614C205.685 460.054 209.27 460.275 212.859 460.275C216.471 460.273 220.08 460.053 223.666 459.614C256.293 455.634 279.091 434.899 276.757 412.029C274.642 391.234 252.102 375.386 224.779 372.627ZM223.869 444.228C220.405 444.816 216.897 445.111 213.384 445.107C209.895 445.112 206.413 444.818 202.975 444.228C182.331 440.693 168.523 427.197 170.503 412.018C172.359 397.781 187.651 386.546 206.322 383.783C209.359 383.332 212.425 383.106 215.495 383.107C218.556 383.105 221.613 383.331 224.64 383.783C243.12 386.546 257.641 397.781 258.535 412.018C259.478 427.197 244.754 440.682 223.869 444.228V444.228Z" fill="#FFD84F"/>
<path d="M225.483 317.345L224.644 383.783C221.617 383.331 218.56 383.105 215.499 383.107C212.429 383.106 209.363 383.332 206.327 383.783L210.004 317.345H225.483Z" fill="#FFD84F"/>
<path d="M392.292 418.963H263.013C263.582 416.692 263.783 414.344 263.609 412.01C263.432 409.694 262.895 407.421 262.019 405.271H387.509L392.292 418.963Z" fill="#FFD84F"/>
<path d="M213.006 456.148C216.609 456.152 220.204 455.811 223.741 455.129L221.805 626.544H193.929L202.378 455.129C205.88 455.812 209.439 456.153 213.006 456.148V456.148Z" fill="#FFD84F"/>
<path d="M140.15 361.157H108.044L112.795 345.337H146.416L140.15 361.157Z" fill="white"/>
<path d="M179.512 361.157H147.41L154.022 345.337H187.639L179.512 361.157Z" fill="white"/>
<path d="M202.323 345.337H193.918L185.504 361.157H201.198L202.323 345.337Z" fill="white"/>
<path d="M133.534 379.195H103.161L107.428 365.069H139.152L133.534 379.195Z" fill="white"/>
<path d="M170.916 378.669L171.087 378.594L178.057 365.062H146.317L140.393 379.187H169.839C170.205 379.019 170.57 378.84 170.916 378.669Z" fill="white"/>
<path d="M190.625 372.385C193.874 371.831 197.166 371.752 200.446 371.724L200.895 365.384H183.258L177.691 375.851C181.891 374.312 186.219 373.152 190.625 372.385V372.385Z" fill="white"/>
<path d="M127.407 394.597H98.5095L102.362 381.841H132.48L127.407 394.597Z" fill="white"/>
<path d="M165.004 381.841H139.295L133.939 394.597H151.215C154.316 389.722 159.139 385.395 165.004 381.841Z" fill="white"/>
<path d="M250.52 412.018C251.164 426.397 234.655 438.735 213.61 438.735C192.565 438.735 176.896 426.397 178.518 412.018C180.045 398.486 196.49 388.094 215.332 388.094C234.174 388.094 249.915 398.486 250.52 412.018Z" fill="#03E484"/>
<path d="M215.845 390.04C215.845 390.04 247.065 393.71 243.132 409.777C238.902 427.07 221.567 427.07 224.231 415.922C226.771 405.291 217.515 402.979 212.621 398.119C207.834 393.371 207.702 390.243 215.845 390.04Z" fill="#04F2F5"/>
<path d="M230.851 340.712L230.906 368.138C230.906 368.138 273.549 376.432 280.209 401.9H371.06L347.801 341.201L230.851 340.712Z" fill="#03E484"/>
<path d="M329.539 450.273H289.612L284.479 426.17H320.653L329.539 450.273Z" fill="white"/>
<path d="M379.139 450.273H339.216L329.419 426.17H365.593L379.139 450.273Z" fill="white"/>
<path d="M343.268 487.514H297.548L290.904 456.331H331.774L343.268 487.514Z" fill="white"/>
<path d="M400.073 487.514H354.353L341.678 456.331H382.547L400.073 487.514Z" fill="white"/>
<path d="M359.928 539.115L346.429 496.079H299.373L303.675 525.312L359.928 539.115Z" fill="white"/>
<path d="M262.257 456.331C256.345 462.082 249.136 467.367 240.644 470.452L241.252 487.514H286.717L281.223 456.331H262.257Z" fill="white"/>
<path d="M386.097 521.416C398.696 524.449 411.439 527.529 424.326 530.657L404.888 496.079H357.84L366.189 516.628L386.097 521.416Z" fill="white"/>
<path d="M96.3982 425.215C101.965 425.701 107.567 426.075 113.217 426.409C113.439 424.614 113.67 422.827 113.833 421.068C114.277 416.636 114.449 412.18 114.35 407.727C114.35 407.218 114.298 406.712 114.274 406.203H95.0901L89.3289 424.547C91.6787 424.769 94.0325 425.004 96.3982 425.215Z" fill="white"/>
<path d="M91.4877 431.273C90.104 431.137 88.7244 430.994 87.3447 430.851L82.2673 447.01L108.763 453.25C110.064 446.21 111.328 439.36 112.342 432.71C105.336 432.335 98.3423 431.945 91.4877 431.273Z" fill="white"/>
<path d="M121.865 426.843C129.789 427.241 137.745 427.532 145.673 427.906C142.524 415.568 146.353 406.187 146.353 406.187H122.787C122.787 406.541 122.815 406.891 122.827 407.242C123.041 413.558 122.616 420.097 121.865 426.843Z" fill="white"/>
<path d="M147.975 434.505C138.989 434.072 130.023 433.624 121.077 433.159C120.095 440.323 118.847 447.714 117.602 455.332L165.191 466.544C165.191 466.544 166.781 463.539 166.483 456.331C156.714 449.163 151.088 441.541 147.975 434.505Z" fill="white"/>
<path d="M54.1094 503.351C56.5547 503.402 187.504 542.753 187.504 542.753L183.799 593.908H25.0488L54.1094 503.351Z" fill="#03E484"/>
<path d="M243.065 495.522L287.187 496.975L289.521 524.584L242.787 511.203L243.065 495.522Z" fill="white"/>
<path d="M115.312 461.194L163.219 472.633L157.414 494.431L109.507 479.9L115.312 461.194Z" fill="white"/>
<path d="M106.966 458.464L99.7101 478.082L84.1003 472.633L90.6369 454.138L106.966 458.464Z" fill="white"/>
<path d="M173.382 461.194L166.487 496.246L193.345 502.785L196.971 467.909L173.382 461.194Z" fill="white"/>
<path d="M297.23 225.467L278.316 225.312L217.527 150.384L236.524 150.54L297.23 225.467Z" fill="#F13005"/>
<path d="M278.316 225.312L259.414 225.157L198.526 150.225L217.527 150.384L278.316 225.312Z" fill="#F1E3E0"/>
<path d="M259.414 225.157L240.5 225.005L179.54 150.07L198.525 150.225L259.414 225.157Z" fill="#F13005"/>
<path d="M316.132 225.622L297.23 225.467L236.524 150.54L255.51 150.695L316.132 225.622Z" fill="#F1E3E0"/>
<path d="M353.943 225.933L335.045 225.777L274.507 150.85L293.492 151.009L353.943 225.933Z" fill="#F1E3E0"/>
<path d="M408.808 226.378L391.759 226.239L331.475 151.32L348.592 151.459L408.808 226.378Z" fill="#F13005"/>
<path d="M391.759 226.239L372.857 226.084L312.49 151.164L331.475 151.32L391.759 226.239Z" fill="#F1E3E0"/>
<path d="M335.046 225.777L316.132 225.622L255.51 150.695L274.507 150.85L335.046 225.777Z" fill="#F13005"/>
<path d="M372.857 226.084L353.943 225.933L293.492 151.009L312.49 151.164L372.857 226.084Z" fill="#F13005"/>
<path d="M259.414 225.157V236.563C259.414 248.651 240.532 248.503 240.508 236.412V225.005L259.414 225.157Z" fill="#D62B04"/>
<path d="M278.32 225.312V236.718C278.32 248.806 259.438 248.658 259.434 236.563V225.157L278.32 225.312Z" fill="#F1C5BC"/>
<path d="M297.23 225.467V236.874C297.23 248.961 278.324 248.814 278.328 236.718V225.312L297.23 225.467Z" fill="#D62B04"/>
<path d="M316.132 225.622L316.092 237.029C316.056 249.112 297.182 248.969 297.202 236.874V225.467L316.132 225.622Z" fill="#F1C5BC"/>
<path d="M335.046 225.777L335.002 237.184C334.954 249.267 316.064 249.124 316.1 237.029L316.132 225.622L335.046 225.777Z" fill="#D62B04"/>
<path d="M353.944 225.933L353.888 237.335C353.828 249.423 334.954 249.275 335.002 237.184L335.046 225.777L353.944 225.933Z" fill="#F1C5BC"/>
<path d="M372.857 226.088L372.79 237.491C372.714 249.578 353.828 249.431 353.888 237.335L353.944 225.933L372.857 226.088Z" fill="#D62B04"/>
<path d="M391.759 226.239L391.676 237.646C391.588 249.729 372.714 249.586 372.79 237.491L372.857 226.088L391.759 226.239Z" fill="#F1C5BC"/>
<path d="M408.812 226.378L408.717 237.785C408.617 249.868 391.588 249.725 391.676 237.646L391.759 226.239L408.812 226.378Z" fill="#D62B04"/>
<path d="M240.501 225.005L241.98 225.208L179.457 224.655L179.541 150.07L240.501 225.005Z" fill="#F13005"/>
<path d="M234.425 527.832C225.594 519.02 239.518 497.87 260.062 477.93C268.523 469.74 277.558 462.167 287.099 455.268C287.394 455.122 287.663 454.929 287.894 454.695L288.316 454.393C288.315 454.286 288.299 454.18 288.268 454.078C288.313 453.93 288.327 453.774 288.308 453.62L282.694 424.168L326.303 423.77C326.62 423.77 326.933 423.692 327.213 423.542C327.493 423.393 327.733 423.177 327.91 422.913C328.088 422.65 328.198 422.346 328.231 422.03C328.264 421.714 328.219 421.395 328.1 421.1L320.207 401.693C320.06 401.339 319.811 401.037 319.491 400.825C319.172 400.612 318.797 400.499 318.414 400.499H278.654C276.649 395.838 273.896 391.535 270.503 387.763C264.611 381.105 253.804 372.56 235.912 369.65C231.936 369.491 232.111 373.085 235.292 373.483C248.703 375.656 259.546 381.28 267.498 390.199C273.462 396.866 275.469 402.983 275.489 403.043C275.615 403.434 275.862 403.776 276.194 404.018C276.527 404.261 276.927 404.392 277.338 404.392H317.122L323.436 419.914H279.863C277.08 419.99 276.285 421.872 276.336 424.292L279.35 451.26C251.709 466.731 220.724 487.128 206.589 499.649C187.445 516.588 187.659 546.259 210.963 568.073C264.058 617.772 350.055 651.208 440.02 673.496C620.495 718.207 740.312 726.262 752.279 727.353C793.089 730.708 846.081 724.507 841.206 678.375C836.332 632.243 913.522 635.343 921.844 633.282C830.253 629.56 311.194 604.407 234.425 527.832Z" fill="#808080"/>
<path d="M921.831 633.218C895.773 632.585 845.162 634.762 839.389 669.436C838.769 673.512 839.242 677.619 839.532 681.682C840.085 690.864 837.715 700.325 831.612 707.326C812.655 727.114 781.912 726.704 756.358 725.789C679.526 719.859 603.247 707.425 527.794 691.919C443.845 674.093 358.548 655.343 281.811 615.595C254.297 600.9 227.03 584.029 205.559 561.14C190.279 543.843 188.375 515.577 206.593 499.594C195.929 508.425 190.597 522.845 192.717 536.52C197.373 567.472 233.324 587.5 257.199 603.814C311.671 636.971 372.861 657.424 434.298 673.336C540.036 699.64 647.436 720.503 756.136 729.403C785.53 730.8 829.572 730.139 841.457 697.304C844.8 688.385 842.415 679.08 843.202 669.953C847.926 638.973 899.097 635.924 921.847 635.69L921.831 633.218Z" fill="#636363"/>
<path d="M285.079 590.481C307.667 600.522 333.984 609.585 362.547 617.752C364.09 615.404 366.782 610.958 367.585 609.911C339.872 602.97 314.338 595.185 292.3 586.485C289.887 587.822 287.481 589.154 285.079 590.481Z" fill="white"/>
<path d="M215.125 529.495C213.836 529.814 212.564 530.202 211.316 530.657C212.509 536.122 215.845 542.263 219.928 547.25C220.553 547.986 221.197 548.715 221.861 549.443L226.004 546.553C221.682 541.825 217.404 535.823 215.125 529.495Z" fill="white"/>
<path d="M248.5 478.157C251.848 475.558 255.351 472.916 259.08 470.03C258.651 469.887 258.221 469.743 257.784 469.632C254.118 472.064 250.273 474.647 246.433 477.345C247.109 477.6 247.796 477.883 248.5 478.157Z" fill="white"/>
<path d="M241.88 482.376C237.177 485.739 232.533 489.265 228.278 492.883C229.209 493.472 230.191 494.002 231.173 494.499C235.263 490.521 239.571 486.776 244.079 483.279C243.331 482.969 242.608 482.671 241.88 482.376Z" fill="white"/>
<path d="M226.004 500.569C224.881 499.962 223.797 499.286 222.759 498.543C214.044 506.869 209.71 514.355 210.505 523.724C212.058 523.71 213.609 523.604 215.149 523.406C214.959 513.265 221.396 505.635 226.004 500.569Z" fill="white"/>
<path d="M233.606 560.456C242.007 567.309 252.067 573.809 263.521 579.958C265.594 578.849 267.664 577.734 269.732 576.614C257.406 570.617 246.691 564.229 237.944 557.423L233.606 560.456Z" fill="white"/>
<path d="M409.206 619.419L399.644 627.586C434.895 636.271 472.404 643.813 509.93 650.36C513.457 648.059 521.906 640.88 524.494 638.993C485.39 633.58 446.107 627.117 409.206 619.419Z" fill="white"/>
<path d="M774.823 663.9C738.153 661.349 655.794 654.288 606.046 648.951C599.843 653.52 593.636 658.084 587.422 662.642C634.216 669.408 714.523 678.013 751.206 682.184C759.02 676.015 766.892 669.92 774.823 663.9Z" fill="white"/>
<path d="M236.123 375.012C244.01 375.012 250.404 372.962 250.404 370.435C250.404 367.907 244.01 365.858 236.123 365.858C228.235 365.858 221.841 367.907 221.841 370.435C221.841 372.962 228.235 375.012 236.123 375.012Z" fill="#222222"/>
<path d="M241.26 370.04C241.26 371.039 238.731 371.851 235.61 371.851C232.489 371.851 229.96 371.055 229.96 370.04C229.96 369.026 232.489 368.226 235.61 368.226C238.731 368.226 241.26 369.038 241.26 370.04Z" fill="white"/>
<path d="M235.606 287.603C227.794 287.605 220.302 290.712 214.778 296.242C209.254 301.771 206.15 309.271 206.147 317.091C206.147 333.381 235.606 363.163 235.606 363.163C235.606 363.163 265.072 333.381 265.072 317.091C265.07 309.269 261.964 301.769 256.439 296.239C250.913 290.709 243.419 287.603 235.606 287.603V287.603ZM235.606 333.667C232.319 333.666 229.106 332.689 226.374 330.86C223.642 329.031 221.513 326.432 220.257 323.392C219 320.352 218.672 317.007 219.314 313.78C219.956 310.554 221.54 307.59 223.865 305.264C226.189 302.938 229.15 301.355 232.374 300.714C235.598 300.072 238.939 300.402 241.976 301.662C245.012 302.921 247.607 305.053 249.433 307.789C251.259 310.525 252.233 313.741 252.233 317.031C252.234 319.216 251.804 321.381 250.968 323.4C250.133 325.419 248.908 327.254 247.364 328.799C245.82 330.344 243.986 331.569 241.969 332.404C239.951 333.24 237.789 333.669 235.606 333.667V333.667Z" fill="#FF3305"/>
<path d="M458.333 251.974C458.333 251.711 458.369 251.448 458.369 251.178C458.369 249.85 458.108 248.536 457.6 247.309C457.093 246.083 456.349 244.968 455.411 244.03C454.473 243.091 453.36 242.346 452.135 241.838C450.909 241.33 449.596 241.069 448.27 241.069C446.944 241.069 445.63 241.33 444.405 241.838C443.18 242.346 442.067 243.091 441.129 244.03C440.191 244.968 439.447 246.083 438.94 247.309C438.432 248.536 438.171 249.85 438.171 251.178C438.171 251.444 438.171 251.707 438.203 251.974H458.333Z" fill="white"/>
<path d="M491.513 251.974C491.513 251.711 491.545 251.448 491.545 251.178C491.545 249.85 491.284 248.536 490.776 247.309C490.269 246.083 489.525 244.968 488.587 244.03C487.649 243.091 486.536 242.346 485.31 241.838C484.085 241.33 482.772 241.069 481.446 241.069C480.12 241.069 478.806 241.33 477.581 241.838C476.356 242.346 475.242 243.091 474.305 244.03C473.367 244.968 472.623 246.083 472.115 247.309C471.608 248.536 471.347 249.85 471.347 251.178C471.347 251.444 471.347 251.707 471.382 251.974H491.513Z" fill="white"/>
<path d="M500.105 251.974C500.134 251.709 500.149 251.444 500.149 251.178C500.028 249.364 499.223 247.665 497.897 246.423C496.571 245.182 494.824 244.491 493.008 244.491C491.193 244.491 489.445 245.182 488.119 246.423C486.793 247.665 485.988 249.364 485.867 251.178C485.868 251.444 485.882 251.709 485.911 251.974H500.105Z" fill="white"/>
<path d="M479.903 251.974C480.169 249.887 479.989 247.768 479.373 245.757C478.757 243.746 477.721 241.89 476.332 240.311C474.944 238.732 473.235 237.468 471.321 236.602C469.406 235.735 467.329 235.287 465.228 235.287C463.127 235.287 461.05 235.735 459.135 236.602C457.22 237.468 455.512 238.732 454.123 240.311C452.735 241.89 451.698 243.746 451.083 245.757C450.467 247.768 450.286 249.887 450.552 251.974H479.903Z" fill="white"/>
<path d="M569.761 214.992C569.796 214.566 569.816 214.136 569.816 213.698C569.816 209.325 568.081 205.131 564.992 202.039C561.902 198.946 557.712 197.209 553.344 197.209C548.975 197.209 544.785 198.946 541.696 202.039C538.607 205.131 536.871 209.325 536.871 213.698C536.871 214.136 536.871 214.566 536.927 214.992H569.761Z" fill="white"/>
<path d="M623.886 214.992C623.918 214.566 623.938 214.136 623.938 213.698C623.938 209.325 622.202 205.131 619.113 202.039C616.024 198.946 611.834 197.209 607.465 197.209C603.096 197.209 598.907 198.946 595.817 202.039C592.728 205.131 590.993 209.325 590.993 213.698C590.993 214.136 591.017 214.566 591.048 214.992H623.886Z" fill="white"/>
<path d="M637.898 214.992C638.084 213.359 637.924 211.705 637.428 210.139C636.931 208.573 636.11 207.129 635.017 205.903C633.924 204.677 632.585 203.695 631.086 203.024C629.588 202.352 627.965 202.004 626.324 202.004C624.682 202.004 623.059 202.352 621.561 203.024C620.062 203.695 618.723 204.677 617.63 205.903C616.537 207.129 615.716 208.573 615.219 210.139C614.723 211.705 614.563 213.359 614.749 214.992H637.898Z" fill="white"/>
<path d="M604.937 214.992C605.066 213.973 605.131 212.946 605.131 211.919C605.172 208.721 604.579 205.546 603.384 202.579C602.19 199.612 600.419 196.913 598.174 194.636C595.929 192.36 593.255 190.553 590.306 189.319C587.358 188.086 584.195 187.45 580.999 187.45C577.804 187.45 574.64 188.086 571.692 189.319C568.744 190.553 566.069 192.36 563.824 194.636C561.579 196.913 559.808 199.612 558.614 202.579C557.42 205.546 556.826 208.721 556.867 211.919C556.866 212.946 556.93 213.972 557.058 214.992H604.937Z" fill="white"/>
<path d="M104.927 547.648C104.927 547.389 104.891 547.131 104.891 546.852C104.891 544.224 105.934 541.703 107.791 539.844C109.647 537.986 112.165 536.942 114.791 536.942C117.417 536.942 119.935 537.986 121.792 539.844C123.648 541.703 124.691 544.224 124.691 546.852C124.691 547.111 124.691 547.369 124.656 547.648H104.927Z" fill="white"/>
<path d="M72.4069 547.648C72.387 547.389 72.3711 547.131 72.3711 546.852C72.3711 544.224 73.4141 541.703 75.2708 539.844C77.1275 537.986 79.6456 536.942 82.2713 536.942C84.897 536.942 87.4152 537.986 89.2719 539.844C91.1285 541.703 92.1716 544.224 92.1716 546.852C92.1716 547.111 92.1716 547.369 92.1358 547.648H72.4069Z" fill="white"/>
<path d="M83.7904 547.648C83.7137 547.035 83.6752 546.419 83.675 545.801C83.675 543.895 84.0501 542.008 84.7788 540.247C85.5076 538.486 86.5756 536.885 87.9221 535.538C89.2686 534.19 90.8672 533.121 92.6264 532.391C94.3857 531.662 96.2713 531.286 98.1755 531.286C100.08 531.286 101.965 531.662 103.725 532.391C105.484 533.121 107.082 534.19 108.429 535.538C109.775 536.885 110.843 538.486 111.572 540.247C112.301 542.008 112.676 543.895 112.676 545.801C112.676 546.419 112.637 547.035 112.561 547.648H83.7904Z" fill="white"/>
<path style="mix-blend-mode:screen" opacity="0.5" d="M638.148 346.658C558.66 343.518 475.104 334.228 389.382 321.664L385.962 327.634C471.88 352.911 541.134 368.015 605.545 373.873C609.831 368.15 628.82 350.487 638.148 346.658Z" fill="url(#paint0_linear_19_918)"/>
<path style="mix-blend-mode:screen" opacity="0.5" d="M680.393 288.291C600.905 285.147 549.924 283.631 471.255 274.716L469.176 278.349C556.815 293.688 601.064 297.342 665.511 303.204C666.588 298.691 673.359 290.803 680.393 288.291Z" fill="url(#paint1_linear_19_918)"/>
<path style="mix-blend-mode:screen" opacity="0.5" d="M461.765 519.545C390.368 514.514 322.207 502.336 269.366 465.58L267.283 469.214C320.406 516.544 372.79 545.63 444.306 555.704C445.396 551.19 454.592 529.738 461.765 519.545Z" fill="url(#paint2_linear_19_918)"/>
<g style="mix-blend-mode:soft-light" opacity="0.6">
<path d="M471.677 606.293L755.81 635.323C791.149 641.771 762.334 674.359 694.508 669.786C694.508 669.786 528.633 649.663 442.406 636.334C411.246 631.515 419.253 599.647 471.677 606.293Z" fill="#222222"/>
</g>
<path d="M528.351 475.395L436.147 467.24L437.718 371.004L529.921 379.159L528.351 475.395Z" fill="#DE7F04"/>
<path d="M434.303 367.41L433.973 387.632L532.514 396.348L532.86 375.139L434.303 367.41Z" fill="#DE7F04"/>
<path d="M481.708 472.04L405.325 465.262L406.904 369.022L483.287 375.804L481.708 472.04Z" fill="#FFA305"/>
<path d="M404.093 365.042L403.751 385.702L485.386 392.949L485.724 371.441L404.093 365.042Z" fill="#FFA305"/>
<path d="M406.69 385.482L406.607 386.418L502.271 394.914L502.354 393.978L406.69 385.482Z" fill="#DE7F04"/>
<path d="M421.862 466.727L416.14 466.221L417.79 366.088L423.508 366.594L421.862 466.727Z" fill="white"/>
<path d="M469.737 471.025L464.015 470.516L465.657 369.945L471.379 370.454L469.737 471.025Z" fill="white"/>
<path d="M554.594 595.15C561.736 573.201 550.88 549.981 530.348 543.287C509.815 536.592 487.38 548.959 480.239 570.909C473.097 592.859 483.953 616.079 504.486 622.773C525.018 629.467 547.453 617.1 554.594 595.15Z" fill="#222222"/>
<path d="M566.504 586.063C564.282 610.07 545.034 628.358 519.838 626.778C494.642 625.198 476.018 604.455 478.245 580.447C480.472 556.44 502.701 538.259 527.897 539.831C553.093 541.403 568.731 562.052 566.504 586.063Z" fill="#222222"/>
<path d="M543.706 591.599C548.756 576.079 541.081 559.66 526.564 554.927C512.047 550.194 496.184 558.939 491.134 574.46C486.084 589.98 493.759 606.399 508.277 611.132C522.794 615.865 538.657 607.12 543.706 591.599Z" fill="#CCCCCC"/>
<path d="M528.584 586.876C530.938 579.64 527.359 571.986 520.59 569.779C513.821 567.572 506.425 571.649 504.071 578.884C501.717 586.12 505.296 593.775 512.065 595.982C518.834 598.189 526.23 594.112 528.584 586.876Z" fill="#737373"/>
<path d="M629.289 575.424C622.204 576.061 544.601 574.995 629.357 488.489C533.261 479.753 486.965 461.505 447.876 573.502L621.592 587.878C629.89 588.399 631.592 578.445 629.289 575.424Z" fill="#E82728"/>
<path d="M643.281 489.317L548.493 481.58C538.267 480.732 540.112 458.894 550.338 459.758L645.13 467.511C657.356 468.506 655.511 490.336 643.281 489.317Z" fill="#222222"/>
<path d="M529.746 483.224L448.457 476.804C447.918 476.762 447.392 476.614 446.911 476.368C446.429 476.122 446.001 475.783 445.651 475.37C445.301 474.958 445.036 474.48 444.871 473.964C444.706 473.449 444.646 472.906 444.692 472.366V472.366C444.788 471.272 445.312 470.26 446.15 469.551C446.987 468.841 448.071 468.491 449.165 468.577L530.454 475.001C530.993 475.042 531.519 475.19 532.001 475.436C532.483 475.682 532.912 476.021 533.262 476.434C533.612 476.846 533.877 477.324 534.041 477.84C534.206 478.356 534.266 478.899 534.219 479.439V479.439C534.122 480.532 533.598 481.543 532.76 482.252C531.923 482.961 530.84 483.31 529.746 483.224V483.224Z" fill="#222222"/>
<path d="M458.113 471.922L454.6 474.634L484.31 513.197L487.824 510.485L458.113 471.922Z" fill="#222222"/>
<path d="M612.304 487.809C612.304 487.809 531.134 572.829 612.348 576.893C628.45 577.323 629.305 575.424 629.305 575.424C606.022 571.444 583.979 562.593 602.845 532.44C618.447 507.494 644.768 489.114 644.768 489.114L612.304 487.809Z" fill="#B81F20"/>
<path d="M567.053 583.237C568.339 580.543 569.455 577.772 570.397 574.939C580.767 543.704 564.954 519.959 536.474 514.017C472.281 500.624 453.682 571.054 453.153 573.809L567.053 583.237Z" fill="#B81F20"/>
<path d="M552.139 581.999C553.421 579.305 554.538 576.535 555.483 573.705C565.849 542.466 550.66 515.199 521.56 512.783C492.46 510.367 460.461 533.746 450.083 564.981C449.169 567.728 448.436 570.532 447.889 573.375L552.139 581.999Z" fill="#E82728"/>
<path d="M529.074 541.869L491.37 539.561C491.197 539.552 491.027 539.508 490.871 539.432C490.715 539.356 490.576 539.249 490.463 539.117C490.349 538.986 490.263 538.833 490.21 538.668C490.157 538.503 490.138 538.329 490.153 538.156V538.028C490.19 537.673 490.362 537.345 490.634 537.114C490.905 536.882 491.256 536.765 491.612 536.787L529.313 539.091C529.486 539.101 529.656 539.145 529.811 539.221C529.967 539.297 530.106 539.404 530.22 539.535C530.334 539.666 530.42 539.819 530.474 539.984C530.528 540.149 530.548 540.323 530.534 540.496V540.627C530.495 540.982 530.323 541.308 530.051 541.539C529.78 541.77 529.43 541.888 529.074 541.869V541.869Z" fill="#222222"/>
<path d="M528.498 548.173L490.793 545.869C490.62 545.86 490.45 545.816 490.295 545.74C490.139 545.664 490 545.557 489.886 545.426C489.773 545.295 489.687 545.142 489.633 544.977C489.58 544.811 489.561 544.637 489.577 544.464V544.333C489.615 543.978 489.788 543.652 490.059 543.422C490.331 543.192 490.68 543.074 491.036 543.095L528.74 545.399C528.913 545.408 529.083 545.452 529.239 545.528C529.395 545.604 529.534 545.711 529.647 545.842C529.761 545.974 529.847 546.126 529.9 546.292C529.953 546.457 529.973 546.631 529.957 546.804V546.932C529.919 547.286 529.746 547.613 529.475 547.844C529.203 548.075 528.853 548.193 528.498 548.173V548.173Z" fill="#222222"/>
<path d="M527.925 554.478L490.221 552.173C490.047 552.164 489.878 552.12 489.721 552.044C489.565 551.968 489.426 551.861 489.312 551.73C489.198 551.599 489.112 551.446 489.058 551.281C489.005 551.116 488.985 550.941 489 550.768V550.641C489.038 550.286 489.211 549.959 489.484 549.727C489.756 549.496 490.107 549.379 490.463 549.399L528.164 551.704C528.337 551.713 528.506 551.757 528.662 551.834C528.818 551.91 528.957 552.017 529.071 552.148C529.185 552.279 529.271 552.431 529.325 552.596C529.379 552.761 529.399 552.936 529.384 553.109V553.24C529.346 553.594 529.173 553.92 528.902 554.151C528.63 554.381 528.281 554.498 527.925 554.478V554.478Z" fill="#222222"/>
<path d="M527.349 560.782L489.645 558.478C489.471 558.468 489.302 558.424 489.146 558.348C488.991 558.271 488.852 558.164 488.739 558.033C488.625 557.902 488.539 557.75 488.486 557.585C488.432 557.42 488.413 557.245 488.428 557.073V556.941C488.466 556.587 488.639 556.261 488.91 556.031C489.182 555.8 489.532 555.683 489.887 555.704L527.615 557.996C527.789 558.005 527.958 558.049 528.114 558.125C528.27 558.201 528.409 558.308 528.522 558.439C528.636 558.57 528.722 558.723 528.775 558.888C528.828 559.054 528.848 559.228 528.832 559.401V559.528C528.797 559.889 528.622 560.223 528.345 560.457C528.068 560.691 527.711 560.808 527.349 560.782V560.782Z" fill="#222222"/>
<path d="M665.741 363.41C665.741 363.41 654.378 403.683 658.934 419.213C668.27 434.835 738.876 433.342 738.876 433.342L744.045 421.892L697.442 407.787L702.145 379.529C706.853 354.065 678.123 345.329 665.741 363.41Z" fill="#32613F"/>
<path d="M618.86 574.636L647.623 577.076C655.217 566.967 706.77 497.6 708.118 481.504C709.251 468.012 704.003 454.838 670.346 440.701C647.79 431.209 621.783 435.925 621.783 435.925C621.783 435.925 602.766 455.949 618.57 467.821C634.375 479.693 664.402 486.698 664.402 486.698L618.86 574.636Z" fill="#024545"/>
<path d="M618.741 574.855L676.97 579.377C676.97 579.377 694.643 572.213 682.373 556.905C672.775 547.903 653.452 552.424 646.231 562.35L626.228 561.092L618.741 574.855Z" fill="#222222"/>
<path d="M586.806 572.63L615.573 575.066C623.163 564.961 674.72 495.594 676.067 479.494C677.201 466.006 671.952 452.828 638.295 438.692C615.74 429.199 599.728 431.599 591.872 433.434C584.015 435.269 570.711 453.919 586.516 465.795C602.321 477.672 632.351 484.672 632.351 484.672L586.806 572.63Z" fill="#027273"/>
<path d="M586.687 572.849L644.907 577.371C644.907 577.371 662.581 570.207 650.311 554.9C640.713 545.893 621.389 550.418 614.165 560.344L594.162 559.083C584.385 563.847 586.357 568.344 586.687 572.849Z" fill="#222222"/>
<path d="M665.01 440.877C679.323 434.962 688.802 404.261 698.05 385.328C714.582 351.498 662.302 327.323 634.343 357.165C608.566 383.186 581.394 408.089 584.778 438.083C609.123 449.927 654.111 446.449 665.01 440.877Z" fill="#56A66B"/>
<path d="M654.573 444.359L654.116 443.539C659.006 440.801 660.875 434.851 663.014 427.961C665.002 421.542 667.296 414.262 672.604 408.543C686.345 389.041 690.313 375.075 691.22 366.781C692.202 357.818 689.916 353.396 689.896 353.352L690.719 352.911C690.818 353.094 693.148 357.559 692.162 366.773C691.263 375.195 687.268 389.379 673.352 409.108L673.312 409.156C668.143 414.728 665.889 421.892 663.909 428.26C661.698 435.324 659.789 441.438 654.573 444.359Z" fill="#386B45"/>
<path d="M634.924 360.274C634.924 360.274 595.808 398.175 607.867 419.249C617.572 436.2 677.793 439.79 681.844 435.205L687.013 423.755C682.64 413.407 660.306 409.236 642.621 405.18L662.764 386.749C680.294 369.714 656.939 340.788 634.924 360.274Z" fill="#417D51"/>
<path d="M692.675 364.023C692.675 364.023 695.995 366.013 695.534 370.972C702.384 365.475 695.534 347.386 678.127 341.062C661.607 335.064 692.675 364.023 692.675 364.023Z" fill="#417D51"/>
<path d="M673.225 344.624C668.167 350.045 692.675 364.023 692.675 364.023L709.895 340.744L689.884 327.61L673.225 344.624Z" fill="#FFA794"/>
<path d="M683.431 320.704C683.431 320.704 688.795 356.015 717.815 353.026C730.805 351.689 736.503 332.402 736.419 321.126C736.232 296.335 714.742 284.112 701.764 289.613C680.246 298.723 683.332 317.369 683.431 320.704Z" fill="#FFA794"/>
<path d="M687.594 334.121C687.594 334.121 693.196 350.105 707.362 353.066C713.076 353.862 714.559 353.205 714.559 353.205C712.197 353.129 696.512 348.322 694.031 330.822C693.148 327.451 686.461 329.99 687.594 334.121Z" fill="#222222"/>
<path d="M696.07 332.692C699.251 327.323 700.873 320.111 702.718 312.553C712.181 313.811 724.689 315.148 738.136 314.993C741.957 314.993 743.969 287.42 713.163 283.153C700.73 281.43 685.232 285.641 678.663 297.879C671.59 311.049 673.367 325.954 679.657 332.613C683.669 336.839 691.76 337.747 696.07 332.692Z" fill="#E82728"/>
<path d="M729.528 314.687L727.803 315.037C730.729 303.893 723.787 295.308 719.234 291.623C711.425 285.298 700.317 282.238 694.981 284.94L694.297 283.579C700.209 280.59 711.831 283.667 720.197 290.441C725.027 294.357 732.669 302.711 729.528 314.687Z" fill="white"/>
<path d="M732.605 315.729L731.146 315.3C733.492 307.32 731.508 299.415 725.58 293.043C718.797 285.764 708.336 282.182 699.565 284.12L699.235 282.636C708.519 280.582 719.552 284.347 726.693 292.005C733.003 298.787 735.106 307.212 732.605 315.729Z" fill="white"/>
<path d="M722.36 331.641C721.523 331.653 720.686 331.582 719.863 331.431C719.731 331.404 719.615 331.326 719.541 331.214C719.466 331.102 719.439 330.965 719.465 330.834C719.492 330.702 719.569 330.586 719.681 330.511C719.793 330.436 719.93 330.409 720.062 330.436C720.102 330.436 723.942 331.192 725.895 329.64C725.975 329.575 726.04 329.494 726.084 329.401C726.128 329.307 726.151 329.205 726.149 329.102C726.248 327.359 722.968 323.741 721.712 322.495C721.664 322.449 721.626 322.393 721.6 322.332C721.574 322.271 721.56 322.205 721.56 322.139C721.559 322.072 721.571 322.006 721.596 321.945C721.621 321.883 721.657 321.827 721.704 321.779C721.75 321.731 721.806 321.694 721.867 321.667C721.928 321.641 721.994 321.627 722.06 321.627C722.127 321.626 722.193 321.638 722.254 321.663C722.316 321.688 722.372 321.725 722.42 321.771C722.921 322.265 727.298 326.647 727.163 329.158C727.156 329.406 727.095 329.649 726.983 329.87C726.872 330.092 726.713 330.286 726.519 330.439C725.35 331.371 723.72 331.622 722.36 331.641Z" fill="#B3523D"/>
<path d="M710.412 320.39C710.284 321.775 709.342 322.85 708.312 322.778C707.283 322.706 706.547 321.536 706.678 320.147C706.809 318.758 707.748 317.688 708.778 317.759C709.807 317.831 710.539 318.981 710.412 320.39Z" fill="#222222"/>
<path d="M732.471 322.089C732.359 323.283 731.556 324.191 730.674 324.135C729.791 324.079 729.167 323.077 729.278 321.89C729.389 320.704 730.192 319.785 731.075 319.841C731.958 319.896 732.578 320.903 732.471 322.089Z" fill="#222222"/>
<path d="M708.213 333.643C708.213 333.643 713.867 340.577 726.698 339.709C726.698 339.709 719.425 349.619 710.794 345.512C702.162 341.404 708.213 333.643 708.213 333.643Z" fill="#B33A20"/>
<path d="M702.718 312.553C716.936 314.03 730.634 315.339 738.848 314.818C738.848 314.818 748.275 317.711 745.782 319.642C743.289 321.572 702.718 312.553 702.718 312.553Z" fill="#222222"/>
<path d="M678.126 341.062C678.126 341.062 672.842 338.595 670.306 343.88C670.99 357.121 681.041 369.654 686.241 370.9C687.084 368.759 688.886 366.124 692.675 364.023C692.675 364.023 678.162 351.979 678.126 341.062Z" fill="#417D51"/>
<path d="M775.766 616.299C782.471 595.691 772.279 573.89 753.001 567.605C733.723 561.32 712.66 572.931 705.955 593.539C699.25 614.147 709.442 635.948 728.72 642.233C747.998 648.518 769.061 636.907 775.766 616.299Z" fill="#222222"/>
<path d="M786.934 607.746C784.846 630.289 766.776 647.458 743.118 645.954C719.461 644.45 701.979 624.995 704.07 602.453C706.161 579.91 727.031 562.84 750.689 564.32C774.346 565.801 789.025 585.211 786.934 607.746Z" fill="#222222"/>
<path d="M765.541 612.961C770.282 598.389 763.076 582.974 749.446 578.531C735.816 574.087 720.923 582.297 716.182 596.869C711.441 611.441 718.647 626.856 732.277 631.299C745.907 635.743 760.799 627.533 765.541 612.961Z" fill="#CCCCCC"/>
<path d="M751.348 608.524C753.559 601.73 750.199 594.542 743.843 592.47C737.487 590.398 730.543 594.226 728.332 601.021C726.121 607.815 729.481 615.003 735.837 617.076C742.193 619.148 749.137 615.319 751.348 608.524Z" fill="#737373"/>
<path d="M759.778 574.736C752.347 584.149 742.284 591.153 730.63 594.079C729.922 594.254 729.211 594.421 728.495 594.564C727.346 594.803 726.193 594.998 725.028 595.145C722.411 595.492 719.77 595.631 717.131 595.563C716.13 595.543 715.143 595.488 714.13 595.408L713.374 595.344L667.348 591.535L623.437 588.491C602.79 587.197 605.227 579.337 624.96 576.579C686.437 576.829 713.951 511.438 698.405 477.079C693.105 464.51 707.152 454.866 720.646 452.801C722.371 452.538 724.114 452.405 725.859 452.403C727.002 452.397 728.144 452.465 729.278 452.606C729.628 452.653 729.966 452.697 730.308 452.757C731.998 452.975 733.665 453.342 735.29 453.855C740.125 455.392 744.351 458.265 747.146 462.751L767.961 509.838C778.076 532.711 773.257 557.674 759.778 574.736Z" fill="#E82728"/>
<path d="M755.857 547.465C755.683 548.619 755.476 549.756 755.237 550.876L760.947 551.123C761.082 550.382 761.209 549.654 761.317 548.934C763.869 531.883 759.173 517.993 758.975 517.412L735.294 453.855C733.122 453.296 730.901 452.954 728.662 452.832L753.869 519.76C754.116 520.5 758.064 532.735 755.857 547.465Z" fill="white"/>
<path d="M756.633 411.508C756.014 411.431 755.39 411.414 754.768 411.456C753.689 411.533 752.627 411.766 751.615 412.149C743.933 415.007 737.512 426.119 736.613 439.01C736.001 447.802 738.097 455.419 741.826 459.965C742.925 461.34 744.293 462.477 745.846 463.304L735.842 459.817L734.991 459.519C728.097 456.805 723.544 447.217 724.304 435.52C725.19 421.86 732.991 410.302 741.977 409.009C743.603 409.06 745.289 409.196 747.023 409.407C750.278 409.843 753.492 410.546 756.633 411.508Z" fill="#FF6162"/>
<path d="M735.003 459.523L705.557 449.266C705.557 449.266 695.263 444.586 701.14 430.56C701.14 430.56 714.4 408.137 741.989 409.025C733.003 410.318 725.202 421.876 724.316 435.535C723.556 447.221 728.109 456.808 735.003 459.523Z" fill="#E82728"/>
<path d="M756.633 411.532C756.386 412.762 755.985 414.816 755.492 417.422C753.548 427.663 750.092 446.377 748.216 456.586L746.904 463.694L745.846 463.328C744.293 462.5 742.925 461.364 741.826 459.989C738.097 455.443 736.001 447.826 736.614 439.034C737.512 426.143 743.934 415.03 751.615 412.173C752.627 411.79 753.689 411.557 754.768 411.48C755.39 411.437 756.014 411.455 756.633 411.532V411.532Z" fill="#E82728"/>
<path d="M769.241 436.845C768.219 451.463 760.096 463.801 751.086 464.402C749.276 464.525 747.467 464.146 745.858 463.308C744.305 462.48 742.937 461.344 741.838 459.969C738.109 455.423 736.013 447.806 736.625 439.014C737.524 426.123 743.945 415.011 751.627 412.153C752.639 411.77 753.701 411.537 754.78 411.46C755.402 411.418 756.026 411.435 756.645 411.512C764.66 412.479 770.187 423.253 769.241 436.845Z" fill="#FF6162"/>
<path d="M767.495 437.004C766.653 449.131 759.905 459.368 752.434 459.865C750.933 459.967 749.432 459.653 748.097 458.958C746.806 458.269 745.672 457.32 744.765 456.172C741.667 452.403 739.926 446.082 740.435 438.787C741.182 428.089 746.51 418.887 752.884 416.499C753.723 416.181 754.604 415.987 755.5 415.926C756.016 415.891 756.533 415.905 757.047 415.966C763.694 416.79 768.283 425.729 767.495 437.004Z" fill="white"/>
<path d="M712.296 442.417L677.264 443.213L677.347 428.009L712.368 429.203C719.167 429.044 718.765 442.274 712.296 442.417Z" fill="#222222"/>
<path d="M682.099 435.678C682.203 431.478 680.114 428.021 677.433 427.955C674.753 427.888 672.496 431.239 672.393 435.438C672.29 439.638 674.379 443.095 677.059 443.161C679.74 443.227 681.996 439.877 682.099 435.678Z" fill="#222222"/>
<path d="M765.821 563.146C764.34 567.265 762.307 571.164 759.778 574.736C752.343 584.145 742.283 591.153 730.63 594.079C728.784 594.541 726.914 594.897 725.027 595.145C721.414 595.619 717.761 595.707 714.129 595.408L713.374 595.344L667.352 591.535C667.805 591.508 696.213 593.923 717.179 561.128C735.226 533.742 773.332 541.28 765.821 563.146Z" fill="#B81F20"/>
<path d="M800.913 601.115C801.206 600.886 801.407 600.558 801.478 600.192C805.378 572.73 772.851 543.377 747.559 546.263C725.453 552.094 711.708 571.699 708.738 594.962L800.913 601.115Z" fill="#E82728"/>
<path d="M680.914 427.209C680.914 427.209 685.983 419.763 697.613 423.85C709.243 427.938 705.295 440.992 702.162 442.644C699.028 444.295 688.194 445.8 689.776 442.918C691.359 440.037 693.021 435.225 690.361 431.253C688.544 428.539 680.818 428.113 680.818 428.113L680.914 427.209Z" fill="#FFA794"/>
<path d="M533.977 479.566L529.325 479.033L532.108 454.484L512.451 453.254L509.703 477.29L505.051 476.756L508.049 450.488C508.118 449.892 508.413 449.344 508.873 448.958C509.333 448.573 509.923 448.378 510.522 448.415L534.859 449.939C535.176 449.959 535.486 450.043 535.77 450.187C536.053 450.331 536.305 450.53 536.509 450.774C536.713 451.018 536.866 451.301 536.957 451.605C537.049 451.91 537.078 452.23 537.042 452.546L533.977 479.566Z" fill="#222222"/>
<g style="mix-blend-mode:soft-light" opacity="0.8">
<path d="M478.889 576.085L567.053 583.237L563.57 598.771L478.098 586.023L478.889 576.085Z" fill="#222222"/>
</g>
<g style="mix-blend-mode:soft-light" opacity="0.8">
<path d="M705.473 594.692L787.093 600.264C787.307 606.011 786.814 611.332 785.379 616.096L703.871 604.709C704.114 601.072 704.575 597.669 705.473 594.692Z" fill="#222222"/>
</g>
<path d="M489.437 340.521C499.132 330.816 499.132 315.081 489.437 305.376C479.741 295.671 464.022 295.671 454.327 305.376C444.632 315.081 444.632 330.816 454.327 340.521C464.022 350.226 479.741 350.226 489.437 340.521Z" fill="#56A66B"/>
<path d="M470.54 334.63L458.974 316.537L460.914 314.484L470.5 323.562L499.481 297.72L501.366 300.124L470.54 334.63Z" fill="white"/>
<path style="mix-blend-mode:screen" opacity="0.5" d="M755.5 415.946L883.745 410.107L870.597 491.411L750.708 459.905L755.5 415.946Z" fill="url(#paint3_linear_19_918)"/>
<path d="M374.969 268.471H288.88C285.145 268.471 282.117 271.502 282.117 275.241V325.548C282.117 329.287 285.145 332.318 288.88 332.318H374.969C378.704 332.318 381.732 329.287 381.732 325.548V275.241C381.732 271.502 378.704 268.471 374.969 268.471Z" fill="white"/>
<path d="M301.119 314.798L302.077 317.747H305.174L302.669 319.57L303.627 322.519L301.119 320.696L298.614 322.519L299.572 319.57L297.063 317.747H300.16L301.119 314.798Z" fill="#FDF280"/>
<path d="M316.35 314.798L317.305 317.747H320.406L317.897 319.57L318.855 322.519L316.35 320.696L313.842 322.519L314.8 319.57L312.295 317.747H315.392L316.35 314.798Z" fill="#FDF280"/>
<path d="M331.578 314.798L332.537 317.747H335.634L333.129 319.57L334.083 322.519L331.578 320.696L329.074 322.519L330.028 319.57L327.523 317.747H330.62L331.578 314.798Z" fill="#FDF280"/>
<path d="M346.807 314.798L347.765 317.747H350.862L348.357 319.57L349.315 322.519L346.807 320.696L344.302 322.519L345.26 319.57L342.751 317.747H345.852L346.807 314.798Z" fill="#FDF280"/>
<path d="M362.039 314.798L362.997 317.747H366.094L363.586 319.57L364.544 322.519L362.039 320.696L359.53 322.519L360.488 319.57L357.983 317.747H361.081L362.039 314.798Z" fill="#FDF280"/>
</g>
<defs>
<linearGradient id="paint0_linear_19_918" x1="618.563" y1="361.461" x2="289.721" y2="299.451" gradientUnits="userSpaceOnUse">
<stop stop-color="white"/>
<stop offset="1"/>
</linearGradient>
<linearGradient id="paint1_linear_19_918" x1="664.162" y1="300.203" x2="390.171" y2="248.535" gradientUnits="userSpaceOnUse">
<stop stop-color="white"/>
<stop offset="1"/>
</linearGradient>
<linearGradient id="paint2_linear_19_918" x1="446.816" y1="527.837" x2="184.574" y2="478.388" gradientUnits="userSpaceOnUse">
<stop stop-color="white"/>
<stop offset="1"/>
</linearGradient>
<linearGradient id="paint3_linear_19_918" x1="756.389" y1="454.511" x2="886.691" y2="450.462" gradientUnits="userSpaceOnUse">
<stop stop-color="white"/>
<stop offset="1"/>
</linearGradient>
<clipPath id="clip0_19_918">
<rect width="994" height="796" fill="white"/>
</clipPath>
</defs>
</svg>
